<?xml version="1.0" encoding="utf-8"?>
<svg width="15.999999" height="16" viewBox="0 0 15.999999 16" version="1.1" id="svg4043" xmlns="http://www.w3.org/2000/svg">
  <path id="path8326-8-9" d="M 8.128 0.836 C 5.385 0.836 2.941 2.447 1.751 4.793 C 1.263 5.751 0.984 6.833 0.984 7.979 C 0.984 9.162 1.281 10.273 1.796 11.255 C 3.003 13.551 5.419 15.126 8.128 15.126 C 9.927 15.126 11.537 14.431 12.743 13.293 C 14.13 11.984 14.984 10.09 14.984 7.979 C 14.984 7.517 14.941 7.067 14.861 6.629 L 14.307 6.629 L 12.142 6.629 L 8.128 6.629 L 8.128 9.331 L 12.201 9.331 C 11.937 10.267 11.385 11.069 10.641 11.62 C 9.963 12.123 9.129 12.419 8.217 12.419 C 6.329 12.419 4.675 11.159 4.096 9.421 C 3.957 8.997 3.883 8.547 3.883 8.077 C 3.883 7.565 3.97 7.069 4.137 6.614 C 4.749 4.935 6.373 3.731 8.217 3.731 C 9.241 3.731 10.165 4.103 10.879 4.723 L 12.825 2.745 C 11.609 1.561 9.969 0.836 8.128 0.836 Z" style="fill-opacity: 1; fill-rule: nonzero; stroke: none; stroke-width: 2.7092; fill: rgb(0, 0, 0);"/>
</svg>